<svg id="bg" data-name="bgSvg" xmlns="http://www.w3.org/2000/svg" viewBox="0 0 1375 1295.2"><defs><style>.cls-1{fill:none;}.cls-2{fill:#fff;}</style></defs><rect class="cls-1" x="891.26" y="891.26" width="80.14" height="80.14"/><rect class="cls-1" x="891.26" y="729.36" width="80.14" height="80.14"/><rect class="cls-1" x="891.26" y="810.31" width="80.14" height="80.14"/><rect class="cls-1" x="891.26" y="648.41" width="80.14" height="80.14"/><rect class="cls-1" x="648.41" y="567.46" width="80.14" height="80.14"/><rect class="cls-1" x="891.26" y="405.56" width="80.14" height="80.14"/><rect class="cls-1" x="891.26" y="486.51" width="80.14" height="80.14"/><rect class="cls-1" x="891.26" y="567.46" width="80.14" height="80.14"/><rect class="cls-1" x="891.26" y="972.21" width="80.14" height="80.14"/><rect class="cls-1" x="810.31" y="162.71" width="80.14" height="80.14"/><rect class="cls-1" x="810.31" y="81.76" width="80.14" height="80.14"/><rect class="cls-1" x="810.31" y="243.66" width="80.14" height="80.14"/><rect class="cls-1" x="810.31" y="0.81" width="80.14" height="80.14"/><rect class="cls-1" x="891.26" y="1053.16" width="80.14" height="80.14"/><rect class="cls-1" x="891.26" y="1134.11" width="80.14" height="80.14"/><rect class="cls-1" x="891.26" y="243.66" width="80.14" height="80.14"/><rect class="cls-1" x="891.26" y="324.61" width="80.14" height="80.14"/><rect class="cls-1" x="972.21" y="729.36" width="80.14" height="80.14"/><rect class="cls-1" x="972.21" y="648.41" width="80.14" height="80.14"/><rect class="cls-1" x="972.21" y="486.51" width="80.14" height="80.14"/><rect class="cls-1" x="972.21" y="162.71" width="80.14" height="80.14"/><rect class="cls-1" x="972.21" y="405.56" width="80.14" height="80.14"/><rect class="cls-1" x="972.21" y="243.66" width="80.14" height="80.14"/><rect class="cls-1" x="972.21" y="324.61" width="80.14" height="80.14"/><rect class="cls-1" x="891.26" y="0.81" width="80.14" height="80.14"/><rect class="cls-1" x="972.21" y="810.31" width="80.14" height="80.14"/><rect class="cls-1" x="891.26" y="162.71" width="80.14" height="80.14"/><rect class="cls-1" x="891.26" y="81.76" width="80.14" height="80.14"/><rect class="cls-1" x="972.21" y="1134.11" width="80.14" height="80.14"/><rect class="cls-1" x="972.21" y="891.26" width="80.14" height="80.14"/><rect class="cls-1" x="972.21" y="1053.16" width="80.14" height="80.14"/><rect class="cls-1" x="972.21" y="972.21" width="80.14" height="80.14"/><rect class="cls-1" x="972.21" y="567.46" width="80.14" height="80.14"/><rect class="cls-1" x="729.36" y="1134.11" width="80.14" height="80.14"/><rect class="cls-1" x="729.36" y="810.31" width="80.14" height="80.14"/><rect class="cls-1" x="729.36" y="891.26" width="80.14" height="80.14"/><rect class="cls-1" x="810.31" y="405.56" width="80.14" height="80.14"/><rect class="cls-1" x="729.36" y="972.21" width="80.14" height="80.14"/><rect class="cls-1" x="729.36" y="729.36" width="80.14" height="80.14"/><rect class="cls-1" x="729.36" y="567.46" width="80.14" height="80.14"/><rect class="cls-1" x="729.36" y="648.41" width="80.14" height="80.14"/><rect class="cls-1" x="648.41" y="324.61" width="80.14" height="80.14"/><rect class="cls-1" x="648.41" y="405.56" width="80.14" height="80.14"/><rect class="cls-1" x="729.36" y="486.51" width="80.14" height="80.14"/><rect class="cls-1" x="648.41" y="486.51" width="80.14" height="80.14"/><rect class="cls-1" x="648.41" y="162.71" width="80.14" height="80.14"/><rect class="cls-1" x="648.41" y="81.76" width="80.14" height="80.14"/><rect class="cls-1" x="648.41" y="0.81" width="80.14" height="80.14"/><rect class="cls-1" x="648.41" y="243.66" width="80.14" height="80.14"/><rect class="cls-1" x="729.36" y="1053.16" width="80.14" height="80.14"/><rect class="cls-1" x="810.31" y="810.31" width="80.14" height="80.14"/><rect class="cls-1" x="810.31" y="972.21" width="80.14" height="80.14"/><rect class="cls-1" x="810.31" y="729.36" width="80.14" height="80.14"/><rect class="cls-1" x="810.31" y="891.26" width="80.14" height="80.14"/><rect class="cls-1" x="810.31" y="486.51" width="80.14" height="80.14"/><rect class="cls-1" x="810.31" y="648.41" width="80.14" height="80.14"/><rect class="cls-1" x="810.31" y="567.46" width="80.14" height="80.14"/><rect class="cls-1" x="729.36" y="243.66" width="80.14" height="80.14"/><rect class="cls-1" x="729.36" y="162.71" width="80.14" height="80.14"/><rect class="cls-1" x="729.36" y="405.56" width="80.14" height="80.14"/><rect class="cls-1" x="729.36" y="324.61" width="80.14" height="80.14"/><rect class="cls-1" x="810.31" y="1134.11" width="80.14" height="80.14"/><rect class="cls-1" x="810.31" y="1053.16" width="80.14" height="80.14"/><rect class="cls-1" x="729.36" y="0.81" width="80.14" height="80.14"/><rect class="cls-1" x="729.36" y="81.76" width="80.14" height="80.14"/><rect class="cls-1" x="810.31" y="324.61" width="80.14" height="80.14"/><rect class="cls-1" x="1215.06" y="324.61" width="80.14" height="80.14"/><rect class="cls-1" x="1215.06" y="162.71" width="80.14" height="80.14"/><rect class="cls-1" x="1215.06" y="243.66" width="80.14" height="80.14"/><rect class="cls-1" x="1215.06" y="486.51" width="80.14" height="80.14"/><rect class="cls-1" x="1215.06" y="405.56" width="80.14" height="80.14"/><rect class="cls-1" x="1215.06" y="1215.06" width="80.14" height="80.14"/><rect class="cls-1" x="1215.06" y="81.76" width="80.14" height="80.14"/><rect class="cls-1" x="1215.06" y="0.81" width="80.14" height="80.14"/><rect class="cls-1" x="1215.06" y="972.21" width="80.14" height="80.14"/><rect class="cls-1" x="1215.06" y="567.46" width="80.14" height="80.14"/><rect class="cls-1" x="972.21" y="81.76" width="80.14" height="80.14"/><rect class="cls-1" x="1215.06" y="1053.16" width="80.14" height="80.14"/><rect class="cls-1" x="1134.11" y="1215.06" width="80.14" height="80.14"/><rect class="cls-1" x="1215.06" y="648.41" width="80.14" height="80.14"/><rect class="cls-1" x="1215.06" y="729.36" width="80.14" height="80.14"/><rect class="cls-1" x="1215.06" y="810.31" width="80.14" height="80.14"/><rect class="cls-1" x="1053.16" y="1215.06" width="80.14" height="80.14"/><rect class="cls-1" x="243.66" y="1215.06" width="80.14" height="80.14"/><rect class="cls-1" x="162.71" y="1215.06" width="80.14" height="80.14"/><rect class="cls-1" x="324.61" y="1215.06" width="80.14" height="80.14"/><rect class="cls-1" x="405.56" y="1215.06" width="80.14" height="80.14"/><rect class="cls-1" x="0.81" y="1215.06" width="80.14" height="80.14"/><rect class="cls-1" x="81.76" y="1215.06" width="80.14" height="80.14"/><rect class="cls-1" x="1215.06" y="1134.11" width="80.14" height="80.14"/><rect class="cls-1" x="891.26" y="1215.06" width="80.14" height="80.14"/><rect class="cls-1" x="810.31" y="1215.06" width="80.14" height="80.14"/><rect class="cls-1" x="972.21" y="1215.06" width="80.14" height="80.14"/><rect class="cls-1" x="567.46" y="1215.06" width="80.14" height="80.14"/><rect class="cls-1" x="486.51" y="1215.06" width="80.14" height="80.14"/><rect class="cls-1" x="648.41" y="1215.06" width="80.14" height="80.14"/><rect class="cls-1" x="729.36" y="1215.06" width="80.14" height="80.14"/><rect class="cls-1" x="1215.06" y="891.26" width="80.14" height="80.14"/><rect class="cls-1" x="1053.16" y="486.51" width="80.14" height="80.14"/><rect class="cls-1" x="1053.16" y="567.46" width="80.14" height="80.14"/><rect class="cls-1" x="1053.16" y="405.56" width="80.14" height="80.14"/><rect class="cls-1" x="1053.16" y="162.71" width="80.14" height="80.14"/><rect class="cls-1" x="1053.16" y="324.61" width="80.14" height="80.14"/><rect class="cls-1" x="1053.16" y="81.76" width="80.14" height="80.14"/><rect class="cls-1" x="1053.16" y="243.66" width="80.14" height="80.14"/><rect class="cls-1" x="1053.16" y="648.41" width="80.14" height="80.14"/><rect class="cls-1" x="1053.16" y="1134.11" width="80.14" height="80.14"/><rect class="cls-1" x="972.21" y="0.81" width="80.14" height="80.14"/><rect class="cls-1" x="1053.16" y="1053.16" width="80.14" height="80.14"/><rect class="cls-1" x="1053.16" y="972.21" width="80.14" height="80.14"/><rect class="cls-1" x="1053.16" y="810.31" width="80.14" height="80.14"/><rect class="cls-1" x="1053.16" y="729.36" width="80.14" height="80.14"/><rect class="cls-1" x="1053.16" y="891.26" width="80.14" height="80.14"/><rect class="cls-1" x="1134.11" y="0.81" width="80.14" height="80.14"/><rect class="cls-1" x="1053.16" y="0.81" width="80.14" height="80.14"/><rect class="cls-1" x="1134.11" y="486.51" width="80.14" height="80.14"/><rect class="cls-1" x="1134.11" y="324.61" width="80.14" height="80.14"/><rect class="cls-1" x="1134.11" y="81.76" width="80.14" height="80.14"/><rect class="cls-1" x="1134.11" y="567.46" width="80.14" height="80.14"/><rect class="cls-1" x="1134.11" y="243.66" width="80.14" height="80.14"/><rect class="cls-1" x="1134.11" y="162.71" width="80.14" height="80.14"/><rect class="cls-1" x="1134.11" y="405.56" width="80.14" height="80.14"/><rect class="cls-1" x="1134.11" y="1053.16" width="80.14" height="80.14"/><rect class="cls-1" x="1134.11" y="972.21" width="80.14" height="80.14"/><rect class="cls-1" x="1134.11" y="1134.11" width="80.14" height="80.14"/><rect class="cls-1" x="1134.11" y="729.36" width="80.14" height="80.14"/><rect class="cls-1" x="1134.11" y="891.26" width="80.14" height="80.14"/><rect class="cls-1" x="1134.11" y="648.41" width="80.14" height="80.14"/><rect class="cls-1" x="1134.11" y="810.31" width="80.14" height="80.14"/><rect class="cls-1" x="0.81" y="810.31" width="80.14" height="80.14"/><rect class="cls-1" x="162.71" y="162.71" width="80.14" height="80.14"/><rect class="cls-1" x="162.71" y="405.56" width="80.14" height="80.14"/><rect class="cls-1" x="324.61" y="972.21" width="80.14" height="80.14"/><rect class="cls-1" x="162.71" y="243.66" width="80.14" height="80.14"/><rect class="cls-1" x="243.66" y="1134.11" width="80.14" height="80.14"/><rect class="cls-1" x="162.71" y="81.76" width="80.14" height="80.14"/><rect class="cls-1" x="162.71" y="0.81" width="80.14" height="80.14"/><rect class="cls-1" x="162.71" y="810.31" width="80.14" height="80.14"/><rect class="cls-1" x="162.71" y="486.51" width="80.14" height="80.14"/><rect class="cls-1" x="162.71" y="972.21" width="80.14" height="80.14"/><rect class="cls-1" x="243.66" y="1053.16" width="80.14" height="80.14"/><rect class="cls-1" x="162.71" y="891.26" width="80.14" height="80.14"/><rect class="cls-1" x="162.71" y="567.46" width="80.14" height="80.14"/><rect class="cls-1" x="162.71" y="729.36" width="80.14" height="80.14"/><rect class="cls-1" x="162.71" y="648.41" width="80.14" height="80.14"/><rect class="cls-1" x="243.66" y="648.41" width="80.14" height="80.14"/><rect class="cls-1" x="243.66" y="81.76" width="80.14" height="80.14"/><rect class="cls-1" x="243.66" y="162.71" width="80.14" height="80.14"/><rect class="cls-1" x="243.66" y="243.66" width="80.14" height="80.14"/><rect class="cls-1" x="324.61" y="1134.11" width="80.14" height="80.14"/><rect class="cls-1" x="324.61" y="1053.16" width="80.14" height="80.14"/><rect class="cls-1" x="243.66" y="324.61" width="80.14" height="80.14"/><rect class="cls-1" x="243.66" y="0.81" width="80.14" height="80.14"/><rect class="cls-1" x="243.66" y="486.51" width="80.14" height="80.14"/><rect class="cls-1" x="243.66" y="810.31" width="80.14" height="80.14"/><rect class="cls-1" x="243.66" y="729.36" width="80.14" height="80.14"/><rect class="cls-1" x="243.66" y="891.26" width="80.14" height="80.14"/><rect class="cls-1" x="243.66" y="405.56" width="80.14" height="80.14"/><rect class="cls-1" x="162.71" y="1053.16" width="80.14" height="80.14"/><rect class="cls-1" x="243.66" y="972.21" width="80.14" height="80.14"/><rect class="cls-1" x="243.66" y="567.46" width="80.14" height="80.14"/><rect class="cls-1" x="162.71" y="324.61" width="80.14" height="80.14"/><rect class="cls-1" x="0.81" y="486.51" width="80.14" height="80.14"/><rect class="cls-1" x="0.81" y="567.46" width="80.14" height="80.14"/><rect class="cls-1" x="0.81" y="405.56" width="80.14" height="80.14"/><rect class="cls-1" x="0.81" y="162.71" width="80.14" height="80.14"/><rect class="cls-1" x="162.71" y="1134.11" width="80.14" height="80.14"/><rect class="cls-1" x="0.81" y="243.66" width="80.14" height="80.14"/><rect class="cls-1" x="0.81" y="0.81" width="80.14" height="80.14"/><rect class="cls-1" x="0.81" y="324.61" width="80.14" height="80.14"/><rect class="cls-1" x="0.81" y="1134.11" width="80.14" height="80.14"/><rect class="cls-1" x="648.41" y="648.41" width="80.14" height="80.14"/><rect class="cls-1" x="0.81" y="972.21" width="80.14" height="80.14"/><rect class="cls-1" x="0.81" y="891.26" width="80.14" height="80.14"/><rect class="cls-1" x="0.81" y="729.36" width="80.14" height="80.14"/><rect class="cls-1" x="0.81" y="1053.16" width="80.14" height="80.14"/><rect class="cls-1" x="0.81" y="648.41" width="80.14" height="80.14"/><rect class="cls-1" x="81.76" y="486.51" width="80.14" height="80.14"/><rect class="cls-1" x="81.76" y="405.56" width="80.14" height="80.14"/><rect class="cls-1" x="81.76" y="1134.11" width="80.14" height="80.14"/><rect class="cls-1" x="81.76" y="324.61" width="80.14" height="80.14"/><rect class="cls-1" x="81.76" y="0.81" width="80.14" height="80.14"/><rect class="cls-1" x="81.76" y="162.71" width="80.14" height="80.14"/><rect class="cls-1" x="81.76" y="81.76" width="80.14" height="80.14"/><rect class="cls-1" x="81.76" y="243.66" width="80.14" height="80.14"/><rect class="cls-1" x="81.76" y="972.21" width="80.14" height="80.14"/><rect class="cls-1" x="81.76" y="891.26" width="80.14" height="80.14"/><rect class="cls-1" x="81.76" y="1053.16" width="80.14" height="80.14"/><rect class="cls-1" x="81.76" y="729.36" width="80.14" height="80.14"/><rect class="cls-1" x="81.76" y="648.41" width="80.14" height="80.14"/><rect class="cls-1" x="81.76" y="567.46" width="80.14" height="80.14"/><rect class="cls-1" x="81.76" y="810.31" width="80.14" height="80.14"/><rect class="cls-1" x="0.81" y="81.76" width="80.14" height="80.14"/><rect class="cls-1" x="486.51" y="729.36" width="80.14" height="80.14"/><rect class="cls-1" x="567.46" y="1134.11" width="80.14" height="80.14"/><rect class="cls-1" x="486.51" y="0.81" width="80.14" height="80.14"/><rect class="cls-1" x="567.46" y="972.21" width="80.14" height="80.14"/><rect class="cls-1" x="567.46" y="810.31" width="80.14" height="80.14"/><rect class="cls-1" x="567.46" y="891.26" width="80.14" height="80.14"/><rect class="cls-1" x="567.46" y="648.41" width="80.14" height="80.14"/><rect class="cls-1" x="486.51" y="81.76" width="80.14" height="80.14"/><rect class="cls-1" x="567.46" y="729.36" width="80.14" height="80.14"/><rect class="cls-1" x="486.51" y="567.46" width="80.14" height="80.14"/><rect class="cls-1" x="486.51" y="648.41" width="80.14" height="80.14"/><rect class="cls-1" x="486.51" y="486.51" width="80.14" height="80.14"/><rect class="cls-1" x="486.51" y="405.56" width="80.14" height="80.14"/><rect class="cls-1" x="486.51" y="162.71" width="80.14" height="80.14"/><rect class="cls-1" x="486.51" y="243.66" width="80.14" height="80.14"/><rect class="cls-1" x="486.51" y="324.61" width="80.14" height="80.14"/><rect class="cls-1" x="567.46" y="1053.16" width="80.14" height="80.14"/><rect class="cls-1" x="648.41" y="891.26" width="80.14" height="80.14"/><rect class="cls-1" x="648.41" y="972.21" width="80.14" height="80.14"/><rect class="cls-1" x="567.46" y="567.46" width="80.14" height="80.14"/><rect class="cls-1" x="648.41" y="1134.11" width="80.14" height="80.14"/><rect class="cls-1" x="648.41" y="729.36" width="80.14" height="80.14"/><rect class="cls-1" x="324.61" y="891.26" width="80.14" height="80.14"/><rect class="cls-1" x="648.41" y="810.31" width="80.14" height="80.14"/><rect class="cls-1" x="648.41" y="1053.16" width="80.14" height="80.14"/><rect class="cls-1" x="567.46" y="405.56" width="80.14" height="80.14"/><rect class="cls-1" x="567.46" y="324.61" width="80.14" height="80.14"/><rect class="cls-1" x="567.46" y="0.81" width="80.14" height="80.14"/><rect class="cls-1" x="567.46" y="486.51" width="80.14" height="80.14"/><rect class="cls-1" x="567.46" y="81.76" width="80.14" height="80.14"/><rect class="cls-1" x="567.46" y="162.71" width="80.14" height="80.14"/><rect class="cls-1" x="567.46" y="243.66" width="80.14" height="80.14"/><rect class="cls-1" x="324.61" y="567.46" width="80.14" height="80.14"/><rect class="cls-1" x="324.61" y="0.81" width="80.14" height="80.14"/><rect class="cls-1" x="324.61" y="162.71" width="80.14" height="80.14"/><rect class="cls-1" x="405.56" y="810.31" width="80.14" height="80.14"/><rect class="cls-1" x="324.61" y="81.76" width="80.14" height="80.14"/><rect class="cls-1" x="405.56" y="1053.16" width="80.14" height="80.14"/><rect class="cls-1" x="405.56" y="891.26" width="80.14" height="80.14"/><rect class="cls-1" x="405.56" y="972.21" width="80.14" height="80.14"/><rect class="cls-1" x="405.56" y="1134.11" width="80.14" height="80.14"/><rect class="cls-1" x="324.61" y="729.36" width="80.14" height="80.14"/><rect class="cls-1" x="324.61" y="648.41" width="80.14" height="80.14"/><rect class="cls-1" x="324.61" y="243.66" width="80.14" height="80.14"/><rect class="cls-1" x="324.61" y="810.31" width="80.14" height="80.14"/><rect class="cls-1" x="324.61" y="324.61" width="80.14" height="80.14"/><rect class="cls-1" x="324.61" y="405.56" width="80.14" height="80.14"/><rect class="cls-1" x="324.61" y="486.51" width="80.14" height="80.14"/><rect class="cls-1" x="486.51" y="1134.11" width="80.14" height="80.14"/><rect class="cls-1" x="486.51" y="810.31" width="80.14" height="80.14"/><rect class="cls-1" x="405.56" y="0.81" width="80.14" height="80.14"/><rect class="cls-1" x="405.56" y="81.76" width="80.14" height="80.14"/><rect class="cls-1" x="405.56" y="162.71" width="80.14" height="80.14"/><rect class="cls-1" x="486.51" y="1053.16" width="80.14" height="80.14"/><rect class="cls-1" x="486.51" y="891.26" width="80.14" height="80.14"/><rect class="cls-1" x="486.51" y="972.21" width="80.14" height="80.14"/><rect class="cls-1" x="405.56" y="405.56" width="80.14" height="80.14"/><rect class="cls-1" x="405.56" y="729.36" width="80.14" height="80.14"/><rect class="cls-1" x="405.56" y="486.51" width="80.14" height="80.14"/><rect class="cls-1" x="405.56" y="567.46" width="80.14" height="80.14"/><rect class="cls-1" x="405.56" y="648.41" width="80.14" height="80.14"/><rect class="cls-1" x="405.56" y="243.66" width="80.14" height="80.14"/><rect class="cls-1" x="405.56" y="324.61" width="80.14" height="80.14"/><path class="cls-2" d="M.81,1215.06H81v80.14h.81v-80.14H161.9v80.14h.81v-80.14h80.14v80.14h.81v-80.14H323.8v80.14h.81v-80.14h80.14v80.14h.81v-80.14H485.7v80.14h.81v-80.14h80.14v80.14h.81v-80.14H647.6v80.14h.81v-80.14h80.14v80.14h.81v-80.14H809.5v80.14h.81v-80.14h80.14v80.14h.81v-80.14H971.4v80.14h.81v-80.14h80.14v80.14h.81v-80.14h80.14v80.14h.81v-80.14h80.14v80.14h.81v-80.14h80.14v80.14h.81v-80.14h79v-.81h-79v-80.14h79v-.81h-79v-80.14h79v-.81h-79V972.21h79v-.81h-79V891.26h79v-.81h-79V810.31h79v-.81h-79V729.36h79v-.81h-79V648.41h79v-.81h-79V567.46h79v-.81h-79V486.51h79v-.81h-79V405.56h79v-.81h-79V324.61h79v-.81h-79V243.66h79v-.81h-79V162.71h79v-.81h-79V81.76h79V81h-79V.81h79V0H0V1295.2H.81ZM1215.06.81h80.14V81h-80.14Zm0,81h80.14V161.9h-80.14Zm0,81h80.14v80.14h-80.14Zm0,80.95h80.14V323.8h-80.14Zm0,81h80.14v80.14h-80.14Zm0,80.95h80.14V485.7h-80.14Zm0,80.95h80.14v80.14h-80.14Zm0,81h80.14V647.6h-80.14Zm0,80.95h80.14v80.14h-80.14Zm0,81h80.14V809.5h-80.14Zm0,80.95h80.14v80.14h-80.14Zm0,81h80.14V971.4h-80.14Zm0,81h80.14v80.14h-80.14Zm0,81h80.14v80.14h-80.14Zm0,80.95h80.14v80.14h-80.14ZM1134.11.81h80.14V81h-80.14Zm0,81h80.14V161.9h-80.14Zm0,81h80.14v80.14h-80.14Zm0,80.95h80.14V323.8h-80.14Zm0,81h80.14v80.14h-80.14Zm0,80.95h80.14V485.7h-80.14Zm0,80.95h80.14v80.14h-80.14Zm0,81h80.14V647.6h-80.14Zm0,80.95h80.14v80.14h-80.14Zm0,81h80.14V809.5h-80.14Zm0,80.95h80.14v80.14h-80.14Zm0,81h80.14V971.4h-80.14Zm0,81h80.14v80.14h-80.14Zm0,81h80.14v80.14h-80.14Zm0,80.95h80.14v80.14h-80.14ZM1053.16.81h80.14V81h-80.14Zm0,81h80.14V161.9h-80.14Zm0,81h80.14v80.14h-80.14Zm0,80.95h80.14V323.8h-80.14Zm0,81h80.14v80.14h-80.14Zm0,80.95h80.14V485.7h-80.14Zm0,80.95h80.14v80.14h-80.14Zm0,81h80.14V647.6h-80.14Zm0,80.95h80.14v80.14h-80.14Zm0,81h80.14V809.5h-80.14Zm0,80.95h80.14v80.14h-80.14Zm0,81h80.14V971.4h-80.14Zm0,81h80.14v80.14h-80.14Zm0,81h80.14v80.14h-80.14Zm0,80.95h80.14v80.14h-80.14ZM972.21.81h80.14V81H972.21Zm0,81h80.14V161.9H972.21Zm0,81h80.14v80.14H972.21Zm0,80.95h80.14V323.8H972.21Zm0,81h80.14v80.14H972.21Zm0,80.95h80.14V485.7H972.21Zm0,80.95h80.14v80.14H972.21Zm0,81h80.14V647.6H972.21Zm0,80.95h80.14v80.14H972.21Zm0,81h80.14V809.5H972.21Zm0,80.95h80.14v80.14H972.21Zm0,81h80.14V971.4H972.21Zm0,81h80.14v80.14H972.21Zm0,81h80.14v80.14H972.21Zm0,80.95h80.14v80.14H972.21ZM891.26.81H971.4V81H891.26Zm0,81H971.4V161.9H891.26Zm0,81H971.4v80.14H891.26Zm0,80.95H971.4V323.8H891.26Zm0,81H971.4v80.14H891.26Zm0,80.95H971.4V485.7H891.26Zm0,80.95H971.4v80.14H891.26Zm0,81H971.4V647.6H891.26Zm0,80.95H971.4v80.14H891.26Zm0,81H971.4V809.5H891.26Zm0,80.95H971.4v80.14H891.26Zm0,81H971.4V971.4H891.26Zm0,81H971.4v80.14H891.26Zm0,81H971.4v80.14H891.26Zm0,80.95H971.4v80.14H891.26ZM810.31.81h80.14V81H810.31Zm0,81h80.14V161.9H810.31Zm0,81h80.14v80.14H810.31Zm0,80.95h80.14V323.8H810.31Zm0,81h80.14v80.14H810.31Zm0,80.95h80.14V485.7H810.31Zm0,80.95h80.14v80.14H810.31Zm0,81h80.14V647.6H810.31Zm0,80.95h80.14v80.14H810.31Zm0,81h80.14V809.5H810.31Zm0,80.95h80.14v80.14H810.31Zm0,81h80.14V971.4H810.31Zm0,81h80.14v80.14H810.31Zm0,81h80.14v80.14H810.31Zm0,80.95h80.14v80.14H810.31ZM729.36.81H809.5V81H729.36Zm0,81H809.5V161.9H729.36Zm0,81H809.5v80.14H729.36Zm0,80.95H809.5V323.8H729.36Zm0,81H809.5v80.14H729.36Zm0,80.95H809.5V485.7H729.36Zm0,80.95H809.5v80.14H729.36Zm0,81H809.5V647.6H729.36Zm0,80.95H809.5v80.14H729.36Zm0,81H809.5V809.5H729.36Zm0,80.95H809.5v80.14H729.36Zm0,81H809.5V971.4H729.36Zm0,81H809.5v80.14H729.36Zm0,81H809.5v80.14H729.36Zm0,80.95H809.5v80.14H729.36ZM648.41.81h80.14V81H648.41Zm0,81h80.14V161.9H648.41Zm0,81h80.14v80.14H648.41Zm0,80.95h80.14V323.8H648.41Zm0,81h80.14v80.14H648.41Zm0,80.95h80.14V485.7H648.41Zm0,80.95h80.14v80.14H648.41Zm0,81h80.14V647.6H648.41Zm0,80.95h80.14v80.14H648.41Zm0,81h80.14V809.5H648.41Zm0,80.95h80.14v80.14H648.41Zm0,81h80.14V971.4H648.41Zm0,81h80.14v80.14H648.41Zm0,81h80.14v80.14H648.41Zm0,80.95h80.14v80.14H648.41ZM567.46.81H647.6V81H567.46Zm0,81H647.6V161.9H567.46Zm0,81H647.6v80.14H567.46Zm0,80.95H647.6V323.8H567.46Zm0,81H647.6v80.14H567.46Zm0,80.95H647.6V485.7H567.46Zm0,80.95H647.6v80.14H567.46Zm0,81H647.6V647.6H567.46Zm0,80.95H647.6v80.14H567.46Zm0,81H647.6V809.5H567.46Zm0,80.95H647.6v80.14H567.46Zm0,81H647.6V971.4H567.46Zm0,81H647.6v80.14H567.46Zm0,81H647.6v80.14H567.46Zm0,80.95H647.6v80.14H567.46ZM486.51.81h80.14V81H486.51Zm0,81h80.14V161.9H486.51Zm0,81h80.14v80.14H486.51Zm0,80.95h80.14V323.8H486.51Zm0,81h80.14v80.14H486.51Zm0,80.95h80.14V485.7H486.51Zm0,80.95h80.14v80.14H486.51Zm0,81h80.14V647.6H486.51Zm0,80.95h80.14v80.14H486.51Zm0,81h80.14V809.5H486.51Zm0,80.95h80.14v80.14H486.51Zm0,81h80.14V971.4H486.51Zm0,81h80.14v80.14H486.51Zm0,81h80.14v80.14H486.51Zm0,80.95h80.14v80.14H486.51ZM405.56.81H485.7V81H405.56Zm0,81H485.7V161.9H405.56Zm0,81H485.7v80.14H405.56Zm0,80.95H485.7V323.8H405.56Zm0,81H485.7v80.14H405.56Zm0,80.95H485.7V485.7H405.56Zm0,80.95H485.7v80.14H405.56Zm0,81H485.7V647.6H405.56Zm0,80.95H485.7v80.14H405.56Zm0,81H485.7V809.5H405.56Zm0,80.95H485.7v80.14H405.56Zm0,81H485.7V971.4H405.56Zm0,81H485.7v80.14H405.56Zm0,81H485.7v80.14H405.56Zm0,80.95H485.7v80.14H405.56ZM324.61.81h80.14V81H324.61Zm0,81h80.14V161.9H324.61Zm0,81h80.14v80.14H324.61Zm0,80.95h80.14V323.8H324.61Zm0,81h80.14v80.14H324.61Zm0,80.95h80.14V485.7H324.61Zm0,80.95h80.14v80.14H324.61Zm0,81h80.14V647.6H324.61Zm0,80.95h80.14v80.14H324.61Zm0,81h80.14V809.5H324.61Zm0,80.95h80.14v80.14H324.61Zm0,81h80.14V971.4H324.61Zm0,81h80.14v80.14H324.61Zm0,81h80.14v80.14H324.61Zm0,80.95h80.14v80.14H324.61ZM243.66.81H323.8V81H243.66Zm0,81H323.8V161.9H243.66Zm0,81H323.8v80.14H243.66Zm0,80.95H323.8V323.8H243.66Zm0,81H323.8v80.14H243.66Zm0,80.95H323.8V485.7H243.66Zm0,80.95H323.8v80.14H243.66Zm0,81H323.8V647.6H243.66Zm0,80.95H323.8v80.14H243.66Zm0,81H323.8V809.5H243.66Zm0,80.95H323.8v80.14H243.66Zm0,81H323.8V971.4H243.66Zm0,81H323.8v80.14H243.66Zm0,81H323.8v80.14H243.66Zm0,80.95H323.8v80.14H243.66ZM162.71.81h80.14V81H162.71Zm0,81h80.14V161.9H162.71Zm0,81h80.14v80.14H162.71Zm0,80.95h80.14V323.8H162.71Zm0,81h80.14v80.14H162.71Zm0,80.95h80.14V485.7H162.71Zm0,80.95h80.14v80.14H162.71Zm0,81h80.14V647.6H162.71Zm0,80.95h80.14v80.14H162.71Zm0,81h80.14V809.5H162.71Zm0,80.95h80.14v80.14H162.71Zm0,81h80.14V971.4H162.71Zm0,81h80.14v80.14H162.71Zm0,81h80.14v80.14H162.71Zm0,80.95h80.14v80.14H162.71ZM81.76.81H161.9V81H81.76Zm0,81H161.9V161.9H81.76Zm0,81H161.9v80.14H81.76Zm0,80.95H161.9V323.8H81.76Zm0,81H161.9v80.14H81.76Zm0,80.95H161.9V485.7H81.76Zm0,80.95H161.9v80.14H81.76Zm0,81H161.9V647.6H81.76Zm0,80.95H161.9v80.14H81.76Zm0,81H161.9V809.5H81.76Zm0,80.95H161.9v80.14H81.76Zm0,81H161.9V971.4H81.76Zm0,81H161.9v80.14H81.76Zm0,81H161.9v80.14H81.76Zm0,80.95H161.9v80.14H81.76ZM.81.81H81V81H.81Zm0,81H81V161.9H.81Zm0,81H81v80.14H.81Zm0,80.95H81V323.8H.81Zm0,81H81v80.14H.81Zm0,80.95H81V485.7H.81Zm0,80.95H81v80.14H.81Zm0,81H81V647.6H.81Zm0,80.95H81v80.14H.81Zm0,81H81V809.5H.81Zm0,80.95H81v80.14H.81Zm0,81H81V971.4H.81Zm0,81H81v80.14H.81Zm0,81H81v80.14H.81Zm0,80.95H81v80.14H.81Z"/></svg>