<svg xmlns="http://www.w3.org/2000/svg" width="24" height="24" viewBox="0 0 24 24" fill="none">
    <path d="M15.3488 24H8.65116C2.58977 24 0 21.4102 0 15.3488V8.65116C0 2.58977 2.58977 0 8.65116 0H15.3488C21.4102 0 24 2.58977 24 8.65116V15.3488C24 21.4102 21.4102 24 15.3488 24ZM8.65116 1.67442C3.50512 1.67442 1.67442 3.50512 1.67442 8.65116V15.3488C1.67442 20.4949 3.50512 22.3256 8.65116 22.3256H15.3488C20.4949 22.3256 22.3256 20.4949 22.3256 15.3488V8.65116C22.3256 3.50512 20.4949 1.67442 15.3488 1.67442H8.65116Z" fill="#030303"/>
    <path d="M12 16.7437C9.38795 16.7437 7.25586 14.6116 7.25586 11.9996C7.25586 9.38746 9.38795 7.25537 12 7.25537C14.6121 7.25537 16.7442 9.38746 16.7442 11.9996C16.7442 14.6116 14.6121 16.7437 12 16.7437ZM12 8.92979C10.3033 8.92979 8.93028 10.3028 8.93028 11.9996C8.93028 13.6963 10.3033 15.0693 12 15.0693C13.6968 15.0693 15.0698 13.6963 15.0698 11.9996C15.0698 10.3028 13.6968 8.92979 12 8.92979Z" fill="#030303"/>
    <path d="M17.5814 6.97671C17.4363 6.97671 17.2911 6.94322 17.1572 6.8874C17.0232 6.83159 16.9004 6.75345 16.7888 6.65298C16.6883 6.54136 16.599 6.41857 16.5432 6.28461C16.4874 6.15066 16.4651 6.00554 16.4651 5.86043C16.4651 5.71531 16.4874 5.57019 16.5432 5.43624C16.6102 5.29112 16.6883 5.1795 16.7888 5.06787C16.8446 5.02322 16.9004 4.9674 16.9563 4.93391C17.0232 4.88926 17.0902 4.85578 17.1572 4.83345C17.2242 4.79996 17.2911 4.77764 17.3693 4.76647C17.7265 4.68833 18.106 4.81112 18.3739 5.06787C18.4744 5.1795 18.5525 5.29112 18.6083 5.43624C18.6642 5.57019 18.6976 5.71531 18.6976 5.86043C18.6976 6.00554 18.6642 6.15066 18.6083 6.28461C18.5525 6.41857 18.4744 6.54136 18.3739 6.65298C18.2623 6.75345 18.1395 6.83159 18.0056 6.8874C17.8716 6.94322 17.7265 6.97671 17.5814 6.97671Z" fill="#030303"/>
</svg>